<mxfile host="65bd71144e">
    <diagram id="Gh5RMoTECn7UyEhN9CJY" name="Page-1">
        <mxGraphModel dx="1836" dy="3256" grid="0" gridSize="10" guides="1" tooltips="1" connect="1" arrows="1" fold="1" page="1" pageScale="1" pageWidth="850" pageHeight="1100" background="#251F33" math="0" shadow="0">
            <root>
                <mxCell id="0"/>
                <mxCell id="1" parent="0"/>
                <mxCell id="26" value="" style="rounded=0;whiteSpace=wrap;html=1;strokeColor=#666666;fillColor=#000000;gradientColor=none;strokeWidth=1;perimeterSpacing=0;" parent="1" vertex="1">
                    <mxGeometry y="-1100" width="850" height="100" as="geometry"/>
                </mxCell>
                <mxCell id="73" style="edgeStyle=none;html=1;exitX=0;exitY=1;exitDx=0;exitDy=0;fontFamily=Architects Daughter;fontSource=https%3A%2F%2Ffonts.googleapis.com%2Fcss%3Ffamily%3DArchitects%2BDaughter;fontSize=21;fontColor=#FFFFFF;" edge="1" parent="1">
                    <mxGeometry relative="1" as="geometry">
                        <mxPoint x="351" y="-522" as="targetPoint"/>
                        <mxPoint x="351.0000000000002" y="-522" as="sourcePoint"/>
                    </mxGeometry>
                </mxCell>
                <mxCell id="77" value="" style="sketch=0;pointerEvents=1;shadow=0;dashed=0;html=1;strokeColor=#006EAF;fillColor=#4717F6;labelPosition=center;verticalLabelPosition=bottom;verticalAlign=top;outlineConnect=0;align=center;shape=mxgraph.office.concepts.settings;rounded=0;labelBackgroundColor=none;labelBorderColor=none;strokeWidth=1;fontFamily=Helvetica;fontSize=21;fontColor=#ffffff;" vertex="1" parent="1">
                    <mxGeometry x="774" y="-1074.5" width="49" height="49" as="geometry"/>
                </mxCell>
                <mxCell id="78" value="" style="sketch=0;pointerEvents=1;shadow=0;dashed=0;html=1;strokeColor=#006EAF;fillColor=#4717F6;labelPosition=center;verticalLabelPosition=bottom;verticalAlign=top;outlineConnect=0;align=center;shape=mxgraph.office.concepts.help;rounded=0;labelBackgroundColor=none;labelBorderColor=none;strokeWidth=1;fontFamily=Helvetica;fontSize=21;fontColor=#ffffff;" vertex="1" parent="1">
                    <mxGeometry x="705" y="-1074.5" width="49" height="49" as="geometry"/>
                </mxCell>
                <mxCell id="92" value="" style="html=1;shadow=0;dashed=0;shape=mxgraph.bootstrap.rrect;rSize=5;strokeColor=#000000;html=1;whiteSpace=wrap;fillColor=#4717F6;fontColor=#ffffff;verticalAlign=bottom;align=left;spacing=20;spacingBottom=0;fontSize=14;rounded=0;labelBackgroundColor=none;labelBorderColor=none;strokeWidth=1;fontFamily=Helvetica;" vertex="1" parent="1">
                    <mxGeometry x="538" y="-978" width="250" height="181" as="geometry"/>
                </mxCell>
                <mxCell id="93" value="&lt;b&gt;&lt;font style=&quot;font-size: 22px;&quot;&gt;¿Como Jugar?&lt;/font&gt;&lt;/b&gt;" style="html=1;shadow=0;dashed=0;shape=mxgraph.bootstrap.topButton;rSize=5;perimeter=none;whiteSpace=wrap;fillColor=#4717F6;strokeColor=#000000;fontColor=#ffffff;resizeWidth=1;fontSize=18;align=left;spacing=20;rounded=0;labelBackgroundColor=none;labelBorderColor=none;strokeWidth=1;fontFamily=Helvetica;" vertex="1" parent="92">
                    <mxGeometry width="250" height="50" relative="1" as="geometry">
                        <mxPoint as="offset"/>
                    </mxGeometry>
                </mxCell>
                <mxCell id="94" value="El Cuadrado Magico" style="text;strokeColor=none;align=center;fillColor=none;html=1;verticalAlign=middle;whiteSpace=wrap;rounded=0;labelBackgroundColor=none;labelBorderColor=none;strokeWidth=1;fontFamily=Helvetica;fontSize=21;fontColor=#FFFFFF;" vertex="1" parent="92">
                    <mxGeometry y="52" width="225" height="30" as="geometry"/>
                </mxCell>
                <mxCell id="96" style="edgeStyle=none;html=1;fontFamily=Helvetica;fontSize=22;fontColor=#FFFFFF;" edge="1" parent="92" source="93" target="78">
                    <mxGeometry relative="1" as="geometry"/>
                </mxCell>
                <mxCell id="99" value="" style="html=1;shadow=0;dashed=0;shape=mxgraph.bootstrap.rrect;rSize=5;fillColor=#4717F6;strokeColor=#000000;rounded=0;labelBackgroundColor=none;labelBorderColor=none;strokeWidth=1;fontFamily=Helvetica;fontSize=22;fontColor=#FFFFFF;" vertex="1" parent="1">
                    <mxGeometry x="323" y="-974" width="170" height="93" as="geometry"/>
                </mxCell>
                <mxCell id="100" value="Temas" style="fillColor=none;strokeColor=#000000;align=left;spacing=20;fontSize=16;rounded=0;labelBackgroundColor=none;labelBorderColor=none;strokeWidth=2;fontFamily=Helvetica;fontColor=#FFFFFF;" vertex="1" parent="99">
                    <mxGeometry width="170" height="30" relative="1" as="geometry">
                        <mxPoint as="offset"/>
                    </mxGeometry>
                </mxCell>
                <mxCell id="101" value="&lt;font style=&quot;font-size: 15px;&quot; color=&quot;#ffffff&quot;&gt;Audio&lt;/font&gt;" style="fillColor=none;strokeColor=#000000;align=left;spacing=20;fontSize=14;rounded=0;labelBackgroundColor=none;labelBorderColor=none;strokeWidth=1;fontFamily=Helvetica;fontColor=#000000;html=1;" vertex="1" parent="99">
                    <mxGeometry width="170" height="30" relative="1" as="geometry">
                        <mxPoint y="32" as="offset"/>
                    </mxGeometry>
                </mxCell>
                <mxCell id="102" value="Acerca de " style="fillColor=none;strokeColor=#000000;align=left;spacing=20;fontSize=15;rounded=0;labelBackgroundColor=none;labelBorderColor=none;strokeWidth=1;fontFamily=Helvetica;fontColor=#FFFFFF;" vertex="1" parent="99">
                    <mxGeometry width="170" height="30" relative="1" as="geometry">
                        <mxPoint y="63" as="offset"/>
                    </mxGeometry>
                </mxCell>
                <mxCell id="104" style="edgeStyle=none;html=1;fontFamily=Helvetica;fontSize=15;fontColor=#FFFFFF;" edge="1" parent="99" source="101" target="77">
                    <mxGeometry relative="1" as="geometry"/>
                </mxCell>
                <mxCell id="106" value="" style="fillColor=#36B37E;strokeColor=none;rounded=1;arcSize=50;sketch=0;hachureGap=4;pointerEvents=0;fontFamily=Architects Daughter;fontSource=https%3A%2F%2Ffonts.googleapis.com%2Fcss%3Ffamily%3DArchitects%2BDaughter;fontSize=20;labelBackgroundColor=none;labelBorderColor=none;strokeWidth=2;fontColor=#FFFFFF;html=1;" vertex="1" parent="99">
                    <mxGeometry x="121" y="36.5" width="40" height="20" as="geometry"/>
                </mxCell>
                <mxCell id="107" value="" style="shape=ellipse;strokeColor=none;fillColor=#ffffff;sketch=0;hachureGap=4;pointerEvents=0;fontFamily=Architects Daughter;fontSource=https%3A%2F%2Ffonts.googleapis.com%2Fcss%3Ffamily%3DArchitects%2BDaughter;fontSize=20;rounded=0;labelBackgroundColor=none;labelBorderColor=none;strokeWidth=2;fontColor=#FFFFFF;html=1;" vertex="1" parent="106">
                    <mxGeometry x="1" y="0.5" width="16" height="16" relative="1" as="geometry">
                        <mxPoint x="-18" y="-8" as="offset"/>
                    </mxGeometry>
                </mxCell>
                <mxCell id="108" value="" style="html=1;shadow=0;dashed=0;shape=mxgraph.atlassian.check;strokeColor=#ffffff;strokeWidth=2;sketch=1;hachureGap=4;pointerEvents=0;fontFamily=Architects Daughter;fontSource=https%3A%2F%2Ffonts.googleapis.com%2Fcss%3Ffamily%3DArchitects%2BDaughter;fontSize=20;rounded=0;labelBackgroundColor=none;labelBorderColor=none;fontColor=#FFFFFF;fillColor=#4717F6;gradientColor=none;" vertex="1" parent="106">
                    <mxGeometry y="0.5" width="10" height="8" relative="1" as="geometry">
                        <mxPoint x="6" y="-5" as="offset"/>
                    </mxGeometry>
                </mxCell>
                <mxCell id="112" value="" style="shape=triangle;direction=south;fillColor=#ffffff;strokeColor=none;html=1;sketch=1;hachureGap=4;pointerEvents=0;fontFamily=Architects Daughter;fontSource=https%3A%2F%2Ffonts.googleapis.com%2Fcss%3Ffamily%3DArchitects%2BDaughter;fontSize=20;rounded=0;labelBackgroundColor=none;labelBorderColor=none;strokeWidth=2;fontColor=#FFFFFF;" vertex="1" parent="99">
                    <mxGeometry x="1" y="0.5" width="12" height="5.5" relative="1" as="geometry">
                        <mxPoint x="40" y="-178" as="offset"/>
                    </mxGeometry>
                </mxCell>
                <mxCell id="118" value="" style="triangle;whiteSpace=wrap;html=1;rounded=0;labelBackgroundColor=none;labelBorderColor=none;strokeColor=#000000;strokeWidth=2;fontFamily=Helvetica;fontSize=43;fontColor=#FFFFFF;fillColor=#FFFFFF;gradientColor=none;rotation=90;" vertex="1" parent="99">
                    <mxGeometry x="143" y="5" width="14" height="24" as="geometry"/>
                </mxCell>
                <mxCell id="105" value="&lt;h1 style=&quot;text-align: justify; font-size: 43px;&quot;&gt;&lt;i&gt;&lt;font color=&quot;#4717f6&quot;&gt;Devs&lt;/font&gt;APC&lt;/i&gt;&lt;/h1&gt;" style="text;strokeColor=none;align=center;fillColor=none;html=1;verticalAlign=middle;whiteSpace=wrap;rounded=0;labelBackgroundColor=none;labelBorderColor=none;strokeWidth=2;fontFamily=Helvetica;fontSize=15;fontColor=#FFFFFF;" vertex="1" parent="1">
                    <mxGeometry x="97" y="-1065" width="60" height="30" as="geometry"/>
                </mxCell>
                <mxCell id="110" value="Status" style="rounded=1;fillColor=none;strokeColor=none;html=1;fontColor=#596780;align=left;fontSize=11;spacingLeft=10;fontSize=11;sketch=1;hachureGap=4;pointerEvents=0;fontFamily=Architects Daughter;fontSource=https%3A%2F%2Ffonts.googleapis.com%2Fcss%3Ffamily%3DArchitects%2BDaughter;labelBackgroundColor=none;labelBorderColor=none;strokeWidth=2;" vertex="1" parent="1">
                    <mxGeometry x="345" y="-917" width="100" height="20" as="geometry"/>
                </mxCell>
                <mxCell id="113" value="" style="rounded=1;fillColor=#ffffff;strokeColor=#DFE1E5;shadow=1;html=1;arcSize=4;sketch=1;hachureGap=4;pointerEvents=0;fontFamily=Architects Daughter;fontSource=https%3A%2F%2Ffonts.googleapis.com%2Fcss%3Ffamily%3DArchitects%2BDaughter;fontSize=20;labelBackgroundColor=none;labelBorderColor=none;strokeWidth=2;fontColor=#FFFFFF;" vertex="1" parent="1">
                    <mxGeometry x="331" y="-761" width="110" height="144" as="geometry"/>
                </mxCell>
                <mxCell id="114" value="Ricardo" style="rounded=0;fillColor=#F4F5F7;strokeColor=none;shadow=0;html=1;align=left;fontSize=12;spacingLeft=10;fontColor=#253858;resizeWidth=1;sketch=1;hachureGap=4;pointerEvents=0;fontFamily=Architects Daughter;fontSource=https%3A%2F%2Ffonts.googleapis.com%2Fcss%3Ffamily%3DArchitects%2BDaughter;labelBackgroundColor=none;labelBorderColor=none;strokeWidth=2;" vertex="1" parent="113">
                    <mxGeometry width="110" height="33" relative="1" as="geometry">
                        <mxPoint y="6" as="offset"/>
                    </mxGeometry>
                </mxCell>
                <mxCell id="115" value="Mary" style="rounded=0;fillColor=none;strokeColor=none;shadow=0;html=1;align=left;fontSize=12;spacingLeft=10;fontColor=#253858;resizeWidth=1;sketch=1;hachureGap=4;pointerEvents=0;fontFamily=Architects Daughter;fontSource=https%3A%2F%2Ffonts.googleapis.com%2Fcss%3Ffamily%3DArchitects%2BDaughter;labelBackgroundColor=none;labelBorderColor=none;strokeWidth=2;" vertex="1" parent="113">
                    <mxGeometry width="110" height="33" relative="1" as="geometry">
                        <mxPoint y="39" as="offset"/>
                    </mxGeometry>
                </mxCell>
                <mxCell id="116" value="matthew" style="rounded=0;fillColor=none;strokeColor=none;shadow=0;html=1;align=left;fontSize=12;spacingLeft=10;fontColor=#253858;resizeWidth=1;sketch=1;hachureGap=4;pointerEvents=0;fontFamily=Architects Daughter;fontSource=https%3A%2F%2Ffonts.googleapis.com%2Fcss%3Ffamily%3DArchitects%2BDaughter;labelBackgroundColor=none;labelBorderColor=none;strokeWidth=2;" vertex="1" parent="113">
                    <mxGeometry width="110" height="33" relative="1" as="geometry">
                        <mxPoint y="72" as="offset"/>
                    </mxGeometry>
                </mxCell>
                <mxCell id="117" value="Karolyn" style="rounded=0;fillColor=none;strokeColor=none;shadow=0;html=1;align=left;fontSize=12;spacingLeft=10;fontColor=#253858;resizeWidth=1;sketch=1;hachureGap=4;pointerEvents=0;fontFamily=Architects Daughter;fontSource=https%3A%2F%2Ffonts.googleapis.com%2Fcss%3Ffamily%3DArchitects%2BDaughter;labelBackgroundColor=none;labelBorderColor=none;strokeWidth=2;" vertex="1" parent="113">
                    <mxGeometry width="110" height="33" relative="1" as="geometry">
                        <mxPoint y="105" as="offset"/>
                    </mxGeometry>
                </mxCell>
                <mxCell id="119" style="edgeStyle=none;html=1;entryX=0;entryY=0.25;entryDx=0;entryDy=0;fontFamily=Helvetica;fontSize=43;fontColor=#FFFFFF;" edge="1" parent="113" source="114" target="118">
                    <mxGeometry relative="1" as="geometry"/>
                </mxCell>
                <mxCell id="122" value="" style="html=1;shadow=0;dashed=0;shape=mxgraph.bootstrap.rrect;rSize=5;strokeColor=#000000;html=1;whiteSpace=wrap;fillColor=#4717F6;fontColor=#ffffff;verticalAlign=bottom;align=left;spacing=20;spacingBottom=0;fontSize=14;rounded=0;labelBackgroundColor=none;labelBorderColor=none;strokeWidth=2;fontFamily=Helvetica;" vertex="1" parent="1">
                    <mxGeometry x="32" y="-893" width="250" height="180" as="geometry"/>
                </mxCell>
                <mxCell id="123" value="&lt;font style=&quot;font-size: 20px;&quot;&gt;&lt;b&gt;ACERCA DE&lt;/b&gt;&lt;/font&gt;" style="html=1;shadow=0;dashed=0;shape=mxgraph.bootstrap.topButton;rSize=5;perimeter=none;whiteSpace=wrap;fillColor=#4717F6;strokeColor=#000000;fontColor=#ffffff;resizeWidth=1;fontSize=18;align=left;spacing=20;rounded=0;labelBackgroundColor=none;labelBorderColor=none;strokeWidth=2;fontFamily=Helvetica;" vertex="1" parent="122">
                    <mxGeometry width="250" height="50" relative="1" as="geometry"/>
                </mxCell>
                <mxCell id="125" style="edgeStyle=none;html=1;fontFamily=Helvetica;fontSize=20;fontColor=none;" edge="1" parent="122" source="123" target="102">
                    <mxGeometry relative="1" as="geometry"/>
                </mxCell>
                <mxCell id="126" value="&lt;div style=&quot;&quot;&gt;&lt;span style=&quot;color: rgb(255, 255, 255); background-color: initial;&quot;&gt;Este fue un proyecto improvisado hecho por el taller de desarrolladores del APC, espero que lo disfrute ;D&lt;/span&gt;&lt;/div&gt;" style="text;strokeColor=none;align=left;fillColor=none;html=1;verticalAlign=middle;whiteSpace=wrap;rounded=0;labelBackgroundColor=none;labelBorderColor=none;strokeWidth=2;fontFamily=Helvetica;fontSize=20;fontColor=none;" vertex="1" parent="122">
                    <mxGeometry x="9" y="56" width="236" height="113" as="geometry"/>
                </mxCell>
                <mxCell id="131" value="" style="html=1;shadow=0;dashed=0;shape=mxgraph.bootstrap.rrect;rSize=5;strokeColor=#82b366;html=1;whiteSpace=wrap;fillColor=#d5e8d4;rounded=0;labelBackgroundColor=none;labelBorderColor=none;strokeWidth=2;fontFamily=Helvetica;fontSize=20;opacity=80;" vertex="1" parent="1">
                    <mxGeometry x="41" y="-546" width="216" height="95" as="geometry"/>
                </mxCell>
                <mxCell id="132" value="&lt;font style=&quot;font-size: 18px;&quot;&gt;&lt;b&gt;¡Bien Hecho!&amp;nbsp;&lt;/b&gt;&lt;/font&gt;" style="html=1;shadow=0;dashed=0;shape=mxgraph.bootstrap.topButton;strokeColor=#005700;fillColor=#008a00;rSize=5;perimeter=none;whiteSpace=wrap;resizeWidth=1;align=left;spacing=20;fontSize=14;rounded=0;labelBackgroundColor=none;labelBorderColor=none;strokeWidth=2;fontFamily=Helvetica;fontColor=#ffffff;" vertex="1" parent="131">
                    <mxGeometry width="216" height="40" relative="1" as="geometry"/>
                </mxCell>
                <mxCell id="134" value="&lt;b&gt;Recibe tu premio :D&lt;/b&gt;" style="html=1;shadow=0;dashed=0;shape=mxgraph.bootstrap.rrect;rSize=5;strokeColor=#005700;strokeWidth=1;fillColor=#008a00;fontColor=#ffffff;whiteSpace=wrap;align=center;verticalAlign=middle;spacingLeft=0;fontStyle=0;fontSize=16;spacing=5;rounded=0;labelBackgroundColor=none;labelBorderColor=none;fontFamily=Helvetica;opacity=80;" vertex="1" parent="131">
                    <mxGeometry x="7" y="46" width="196" height="40" as="geometry"/>
                </mxCell>
                <mxCell id="139" style="edgeStyle=none;html=1;fontFamily=Helvetica;fontSize=21;fontColor=#4717F6;" edge="1" parent="131" source="132" target="138">
                    <mxGeometry relative="1" as="geometry"/>
                </mxCell>
                <mxCell id="135" value="" style="html=1;shadow=0;dashed=0;shape=mxgraph.bootstrap.rrect;rSize=5;html=1;whiteSpace=wrap;fillColor=#f8cecc;rounded=0;labelBackgroundColor=none;labelBorderColor=none;strokeWidth=2;fontFamily=Helvetica;fontSize=20;opacity=80;strokeColor=#b85450;gradientColor=default;" vertex="1" parent="1">
                    <mxGeometry x="526" y="-546" width="216" height="95" as="geometry"/>
                </mxCell>
                <mxCell id="136" value="&lt;font style=&quot;font-size: 17px;&quot;&gt;&lt;b&gt;Oops, Te equivocaste!&lt;/b&gt;&lt;/font&gt;" style="html=1;shadow=0;dashed=0;shape=mxgraph.bootstrap.topButton;strokeColor=#6F0000;fillColor=#a20025;rSize=5;perimeter=none;whiteSpace=wrap;resizeWidth=1;align=left;spacing=20;fontSize=14;rounded=0;labelBackgroundColor=none;labelBorderColor=none;strokeWidth=2;fontFamily=Helvetica;fontColor=#ffffff;" vertex="1" parent="135">
                    <mxGeometry width="216" height="40" relative="1" as="geometry"/>
                </mxCell>
                <mxCell id="137" value="&lt;b&gt;Recibe tu castigo :/&lt;/b&gt;" style="html=1;shadow=0;dashed=0;shape=mxgraph.bootstrap.rrect;rSize=5;strokeColor=#6F0000;strokeWidth=1;fillColor=#a20025;fontColor=#ffffff;whiteSpace=wrap;align=center;verticalAlign=middle;spacingLeft=0;fontStyle=0;fontSize=16;spacing=5;rounded=0;labelBackgroundColor=none;labelBorderColor=none;fontFamily=Helvetica;opacity=80;" vertex="1" parent="135">
                    <mxGeometry x="7" y="46" width="196" height="40" as="geometry"/>
                </mxCell>
                <mxCell id="140" style="edgeStyle=none;html=1;entryX=1.042;entryY=0.564;entryDx=0;entryDy=0;entryPerimeter=0;fontFamily=Helvetica;fontSize=21;fontColor=#4717F6;" edge="1" parent="135" source="136" target="138">
                    <mxGeometry relative="1" as="geometry"/>
                </mxCell>
                <mxCell id="138" value="&lt;font style=&quot;font-size: 21px;&quot;&gt;&lt;b&gt;Resultados&lt;/b&gt;&lt;/font&gt;" style="html=1;shadow=0;dashed=0;shape=mxgraph.bootstrap.rrect;rSize=5;strokeColor=none;strokeWidth=1;fillColor=#4717F6;fontColor=#FFFFFF;whiteSpace=wrap;align=center;verticalAlign=middle;spacingLeft=0;fontStyle=0;fontSize=16;spacing=5;rounded=0;labelBackgroundColor=none;labelBorderColor=none;fontFamily=Helvetica;opacity=80;" vertex="1" parent="1">
                    <mxGeometry x="334" y="-563" width="129" height="40" as="geometry"/>
                </mxCell>
            </root>
        </mxGraphModel>
    </diagram>
</mxfile>